# xmcd CD database file
#
# Track frame offsets:
#	150
#	20895
#	43053
#	64796
#	86031
#	108708
#	131939
#	156494
#	177464
#	201288
#
# Disc length: 2913 seconds
#
# Revision: 1
# Processed by: cddbd v1.5PL3 Copyright (c) Steve Scherf et al.
# Submitted via: CDex 1.51
#
DISCID=9d0b5f0a
DTITLE=????? - SMILE
DYEAR=2003
DGENRE=JPop
TTITLE0=Thank You
TTITLE1=???????
TTITLE2=???
TTITLE3=???
TTITLE4=?? [album ver.]
TTITLE5=Go! Go!
TTITLE6=???? [album ver.]
TTITLE7=????
TTITLE8=????????
TTITLE9=???? [album ver.]
EXTD=YEAR: 2003
EXTT0=
EXTT1=
EXTT2=
EXTT3=
EXTT4=
EXTT5=
EXTT6=
EXTT7=
EXTT8=
EXTT9=
PLAYORDER=
